<?xml version="1.0" encoding="iso-8859-1"?>
<!-- Generator: Adobe Illustrator 19.0.0, SVG Export Plug-In . SVG Version: 6.00 Build 0)  -->
<svg version="1.1" id="Layer_1" xmlns="http://www.w3.org/2000/svg" xmlns:xlink="http://www.w3.org/1999/xlink" x="0px" y="0px"
	 viewBox="0 0 349.418 349.418" style="enable-background:new 0 0 349.418 349.418;" xml:space="preserve">
<g>
	<path style="fill:#FF8189;" d="M72.76,12.484c-16.644-16.646-43.63-16.644-60.274,0c-16.645,16.645-16.645,43.63,0,60.274
		l30.137,30.138c-16.645-16.646-16.645-43.631,0-60.275s43.629-16.644,60.275,0L72.76,12.484z"/>
	
		<rect x="18.42" y="134.275" transform="matrix(-0.7071 -0.7071 0.7071 -0.7071 176.8996 427.0638)" style="fill:#F6C65B;" width="316.955" height="85.24"/>
	
		<rect x="18.419" y="162.687" transform="matrix(-0.7071 -0.7071 0.7071 -0.7071 176.8987 427.0615)" style="fill:#F7B334;" width="316.955" height="28.413"/>
	
		<rect x="-1.671" y="182.78" transform="matrix(-0.7071 -0.7071 0.7071 -0.7071 128.3952 447.1549)" style="fill:#FFA400;" width="316.955" height="28.413"/>
	<g>
		<path style="fill:#F4DBB2;" d="M349.388,343.007l0.023-0.023c0-8.893-13.553-53.93-21.482-71.281
			c-2.067-4.672-5.004-9.053-8.833-12.882c-16.645-16.644-43.631-16.644-60.276,0c-16.644,16.645-16.644,43.632,0,60.276
			c3.83,3.829,8.21,6.765,12.881,8.833c17.351,7.929,62.389,21.482,71.281,21.482l0.023-0.023c1.685,0.164,3.427-0.373,4.717-1.665
			C349.015,346.434,349.552,344.691,349.388,343.007z"/>
		<path style="fill:#333E48;" d="M349.388,343.007l0.023-0.023c0-3.443-2.038-12.319-4.991-22.902
			c-6.635-1.778-14.01-0.082-19.216,5.124c-5.207,5.206-6.902,12.58-5.123,19.217c10.582,2.952,19.458,4.99,22.901,4.99l0.023-0.023
			c1.685,0.164,3.427-0.373,4.717-1.665C349.015,346.434,349.552,344.691,349.388,343.007z"/>
	</g>
	<path style="fill:#7D868C;" d="M94.973,34.698c-16.645-16.645-43.63-16.645-60.274,0c-16.645,16.645-16.645,43.629,0,60.273
		l30.137,30.138c-16.644-16.644-16.645-43.63,0-60.274c16.645-16.645,43.631-16.645,60.275,0L94.973,34.698z"/>
	<path style="fill:#5C6670;" d="M102.897,42.621c-16.646-16.644-43.63-16.644-60.275,0c-16.645,16.645-16.645,43.63,0,60.275
		l7.499,7.498c-16.644-16.644-16.644-43.63,0-60.274s43.63-16.644,60.274,0L102.897,42.621z"/>
</g>
<g>
</g>
<g>
</g>
<g>
</g>
<g>
</g>
<g>
</g>
<g>
</g>
<g>
</g>
<g>
</g>
<g>
</g>
<g>
</g>
<g>
</g>
<g>
</g>
<g>
</g>
<g>
</g>
<g>
</g>
</svg>
